<!-- icon666.com - MILLIONS vector ICONS FREE --><svg id="Layer_1" viewBox="0 0 64 64" xmlns="http://www.w3.org/2000/svg"><g><g clip-rule="evenodd" fill-rule="evenodd"><path d="m15.852 13.997h41.046c.936 0 1.729.369 2.353 1.078.596.709.851 1.588.709 2.494l-3.033 19.559c-.227 1.531-1.503 2.637-3.062 2.637h-34.045z" fill="#aacd6e" style="fill: rgb(241, 243, 236);"></path><path d="m26.312 59.288c2.466 0 4.45-1.984 4.45-4.451s-1.984-4.451-4.45-4.451c-2.438 0-4.45 1.984-4.45 4.451s2.012 4.451 4.45 4.451z" fill="#67625e" style="fill: rgb(241, 240, 239);"></path><path d="m47.826 59.288c2.438 0 4.45-1.984 4.45-4.451s-2.013-4.451-4.45-4.451c-2.466 0-4.479 1.984-4.479 4.451s2.013 4.451 4.479 4.451z" fill="#67625e" style="fill: rgb(241, 240, 239);"></path><path d="m37.934 23.013c4.961 0 9.014-4.055 9.014-9.016s-4.053-9.014-9.014-9.014-8.986 4.053-8.986 9.014 4.025 9.016 8.986 9.016z" fill="#c6de9e" style="fill: rgb(232, 232, 232);"></path></g><path d="m19.82 46.468c-1.84 0-3.337-1.497-3.337-3.338 0-1.855 1.497-3.365 3.337-3.365h1.176l-4.467-28.926c-.526-3.55-3.518-6.127-7.112-6.127h-5.414v2h5.414c2.595 0 4.754 1.859 5.135 4.426l4.123 26.759c-2.393.529-4.191 2.672-4.191 5.233 0 2.943 2.395 5.338 5.337 5.338h34.044v-2z" fill="#c6de9e" style="fill: rgb(232, 232, 232);"></path><path d="m41.42 12.801h-2.486v-2.458h-2v2.458h-2.459v2h2.459v2.487h2v-2.487h2.486z" fill="#aacd6e" style="fill: rgb(241, 243, 236);"></path></g></svg>